<?xml version="1.0" encoding="UTF-8"?>
<svg id="Layer_3" data-name="Layer 3" xmlns="http://www.w3.org/2000/svg" viewBox="0 0 297.78 328.59">
  <defs>
    <style>
      .cls-1 {
        fill: #3f4042;
        stroke-width: 0px;
      }
    </style>
  </defs>
  <path class="cls-1" d="m119.72,220.28c-8.69-1.62-16.95-2.85-25.05-4.74-17.12-3.98-32.89-10.84-45.86-23.11-15.08-14.26-22.54-32.35-25.59-52.42-2.34-15.46-3.32-31.01.57-46.44,3.19-12.68,9.03-24,17.74-33.75,1.66-1.86,1.83-3.29,1.06-5.6-5.83-17.46-3.94-34.66,2.33-51.59.38-1.01,2.24-2.2,3.3-2.11,5.55.49,11.21.8,16.57,2.21,13.77,3.62,25.93,10.77,37.93,18.22,1.47.91,3.79,1.34,5.46.93,34.21-8.47,68.37-8.4,102.59-.07,1.76.43,4.22-.03,5.77-1,13.8-8.61,27.92-16.45,44.12-19.68,11.74-2.34,12.72-1.83,15.85,9.47,4.08,14.75,4.4,29.5-.1,44.26-.35,1.16-.12,3.05.63,3.91,15.32,17.54,21.63,38.07,20.66,61.11-.66,15.66-2.77,31.04-8.94,45.6-10.42,24.57-29.41,39.5-54.42,46.98-11.27,3.37-22.98,5.31-34.66,7.93,0-.43-.1-.09.01.03,9.98,10.34,13.35,23.2,13.5,37,.21,19.33,0,38.67-.19,58.01-.06,5.59,1.35,9.86,7.36,12-40.79.39-81.58.78-122.37,1.17,7.89-2.26,8.3-8.36,8.16-15.04-.2-10.32-.05-20.65-.05-31.33-5.52.7-10.27,1.47-15.05,1.89-12.66,1.11-24.93-.35-36.32-6.38-10.17-5.39-17.56-13.37-21.93-24.1-5.48-13.43-13.09-25.18-25.92-32.88-2.09-1.26-3.95-3.08-5.54-4.96-2.19-2.6-1.63-4.98,1.7-5.53,4.07-.67,8.49-1.02,12.47-.17,12.28,2.65,20.83,10.63,27.69,20.77,2.64,3.91,5.32,7.92,8.63,11.24,12.93,12.98,28.53,14.55,45.4,9.91.36-.1.7-.29,1.06-.36,5.27-1.03,8.54-3.28,9.35-9.47,1.11-8.45,5.86-15.5,12.1-21.91Z"/>
</svg>