<?xml version="1.0" encoding="UTF-8"?>
<svg id="Layer_3" data-name="Layer 3" xmlns="http://www.w3.org/2000/svg" viewBox="0 0 359.96 359.88">
  <defs>
    <style>
      .cls-1 {
        fill: #3f4042;
        stroke-width: 0px;
      }
    </style>
  </defs>
  <path class="cls-1" d="m261.59,359.88H98.57c-.78-.2-1.56-.41-2.34-.6-8.84-2.11-17.96-3.42-26.46-6.46C29.61,338.42.9,299.08.41,256.55c-.59-51.17-.5-102.36.02-153.54.25-24.7,9.36-46.66,25.56-65.31C47.98,12.39,75.99,0,109.53.04,156.37.08,203.21.17,250.05,0c22.13-.08,42.61,5.26,61.11,17.44,22.25,14.66,37.32,34.8,44.59,60.5,1.89,6.7,2.84,13.66,4.22,20.5v163.05c-.21.89-.52,1.77-.62,2.67-1.87,17.01-7.38,32.74-16.83,47-14.7,22.18-34.79,37.22-60.43,44.49-6.69,1.9-13.65,2.85-20.49,4.23Zm61.89-179.72s.08,0,.12,0c0-23.65-.09-47.31.04-70.96.06-12.16-2.11-23.78-7.94-34.46-12.81-23.48-32.6-37.45-59.39-37.94-49.62-.91-99.27-.33-148.91-.37-11.43-.01-22.33,2.38-32.37,7.83-23.63,12.84-37.63,32.7-38.11,59.65-.89,49.63-.32,99.29-.36,148.94-.01,11.44,2.43,22.34,7.9,32.36,12.81,23.48,32.6,37.46,59.39,37.95,49.62.91,99.27.34,148.91.38,13.93.01,26.88-3.6,38.45-11.33,19.97-13.35,31.42-32.07,32.11-56.17.72-25.27.16-50.58.16-75.87Z"/>
  <path class="cls-1" d="m180.08,86.82c51.15-.01,93.09,41.93,93.13,93.12.04,51.15-41.93,93.12-93.12,93.13-51.17.01-93.13-41.95-93.13-93.13,0-51.18,41.94-93.12,93.12-93.13Zm56.71,90.9c-1.48-32.42-28.56-55.71-58.86-54.46-32.43,1.34-55.75,28.45-54.54,58.76,1.3,32.69,28.69,55.97,59.02,54.64,32.34-1.43,55.58-28.56,54.38-58.94Z"/>
  <path class="cls-1" d="m273.21,109.89c-12.36-.08-22.2-10.02-22.18-22.39.03-12.34,9.98-22.2,22.37-22.15,12.32.05,22.35,10.13,22.23,22.35-.12,12.33-10.17,22.27-22.43,22.19Z"/>
</svg>