<?xml version="1.0" encoding="UTF-8"?>
<svg id="Layer_3" data-name="Layer 3" xmlns="http://www.w3.org/2000/svg" viewBox="0 0 383.2 383.25">
  <defs>
    <style>
      .cls-1 {
        fill: #3f4042;
        stroke-width: 0px;
      }
    </style>
  </defs>
  <path class="cls-1" d="m383.2,383.25c-26.07-.02-52.15-.03-78.22-.06-.23,0-.45-.14-1.14-.36,0-1.3,0-2.75,0-4.2-.02-43.04.11-86.08-.18-129.12-.06-8.92-.93-17.98-2.67-26.73-4.89-24.5-20.9-34.04-45.07-31.48-22.46,2.38-34.95,14.62-38.72,37.84-1.53,9.43-2.21,19.09-2.27,28.65-.24,40.17-.1,80.34-.1,120.51,0,1.48,0,2.96,0,4.68h-79.16V127.57h76.01v35.45c1.19-1.36,1.72-1.8,2.06-2.36,13.39-22.24,33.61-34.43,58.69-38.4,19.45-3.08,38.86-1.48,57.54,5.23,24.39,8.76,38.49,26.94,45.8,51.11,3.99,13.2,5.79,26.77,6.71,40.48.14,2.08.47,4.15.72,6.22v157.94Z"/>
  <path class="cls-1" d="m51.6,0c3.45.97,6.99,1.71,10.35,2.95,21.23,7.84,33.51,29.85,29.18,52.09-4.21,21.6-23.89,37.77-45.55,37.43-22.52-.35-41.57-16.99-45.02-39.31C-3.31,28.2,13.31,5.08,38.27.67c.72-.13,1.4-.44,2.1-.67,3.74,0,7.49,0,11.23,0Z"/>
  <path class="cls-1" d="m6.49,127.43h78.95v255.56H6.49V127.43Z"/>
</svg>