<?xml version="1.0" encoding="UTF-8"?>
<svg id="Layer_3" xmlns="http://www.w3.org/2000/svg" viewBox="0 0 451.67 177.48">
  <defs>
    <style>
      .cls-1 {
        fill: #f36f5b;
      }

      .cls-2 {
        fill: #efeded;
      }
    </style>
  </defs>
  <g>
    <path class="cls-1" d="M198.76,104.36c4.79,4.35,8.14,11.04,8.14,18.95s-3.34,14.49-8.14,18.84c-4.12,3.79-10.37,6.8-19.51,6.8s-15.38-3.01-19.51-6.8c-4.79-4.35-8.14-11.04-8.14-18.84s3.34-14.6,8.14-18.95c4.12-3.79,10.37-6.8,19.51-6.8s15.38,3.01,19.51,6.8ZM192.85,123.31c0-7.58-5.8-13.71-13.6-13.71s-13.6,6.13-13.6,13.71,5.68,13.6,13.6,13.6,13.6-6.24,13.6-13.6Z"/>
    <path class="cls-1" d="M217.71,99.12h13.6v7.25c2.12-4.12,5.02-6.13,6.02-6.69,2.12-1.34,4.79-2.12,8.03-2.12,2.34,0,4.24.56,5.8,1.12l-1.78,12.71c-1.78-1.23-3.57-1.78-6.35-1.78-2.56,0-6.35.56-9.03,3.9-2.56,3.23-2.68,7.36-2.68,10.7v23.18h-13.6v-48.26Z"/>
    <path class="cls-1" d="M303.54,133.9c-1.45,3.57-6.91,15.05-23.74,15.05-7.8,0-13.71-2.23-18.5-6.8-5.35-5.02-7.58-11.26-7.58-18.84,0-9.59,3.9-15.49,7.36-18.95,5.69-5.57,12.37-6.8,18.17-6.8,9.81,0,15.49,3.9,18.84,7.91,5.13,6.13,5.8,13.71,5.8,18.95v1.11h-36.11c0,2.9.78,6.02,2.34,8.14,1.45,2.01,4.46,4.57,9.7,4.57s9.03-2.45,11.26-6.35l12.48,2.01ZM291.05,116.84c-1.11-6.58-6.46-9.7-11.48-9.7s-10.25,3.23-11.37,9.7h22.85Z"/>
    <path class="cls-1" d="M327.95,66.13v81.26h-13.6v-81.26h13.6Z"/>
    <path class="cls-1" d="M385.57,104.36c4.79,4.35,8.14,11.04,8.14,18.95s-3.34,14.49-8.14,18.84c-4.12,3.79-10.37,6.8-19.51,6.8s-15.38-3.01-19.51-6.8c-4.79-4.35-8.14-11.04-8.14-18.84s3.34-14.6,8.14-18.95c4.12-3.79,10.37-6.8,19.51-6.8s15.38,3.01,19.51,6.8ZM379.66,123.31c0-7.58-5.8-13.71-13.6-13.71s-13.6,6.13-13.6,13.71,5.68,13.6,13.6,13.6,13.6-6.24,13.6-13.6Z"/>
    <path class="cls-1" d="M410.88,99.12l12.71,27.2,12.71-27.2h15.16l-24.3,48.26h-7.13l-24.3-48.26h15.16Z"/>
  </g>
  <path class="cls-1" d="M82.56,65.81v24.99h38.38c-2.46,10.71-8.26,18.3-14.06,22.76-8.26,6.25-19.41,8.93-29.23,8.93-15.84,0-26.33-6.25-33.03-12.72-6.25-6.02-14.73-17.85-14.73-37.71,0-16.74,6.47-31.02,14.95-39.27.66-.64,1.34-1.25,2.03-1.84L27.14,11.19c-1.91,1.6-3.67,3.22-5.27,4.85C12.94,24.97,0,42.6,0,71.38c0,33.47,16.96,52.22,22.09,57.35,16.29,16.29,35.48,20.08,54,20.08s37.49-4.24,52.89-19.64c20.53-20.31,21.87-51.55,21.87-61.59v-1.79h-68.28Z"/>
  <g>
    <path class="cls-2" d="M109.44,34.8h19.41v1.12c0,5.17-1.54,10.75-4.47,14.73-1.4,1.88-6.63,8.38-17.31,8.38-13.82,0-24.15-10.54-24.15-24.08s10.4-24.08,24.29-24.08c4.47,0,9.7,1.12,14.24,4.61,2.09,1.61,4.05,3.7,5.38,5.51l-3.84,3.49c-1.33-1.88-2.86-3.56-4.4-4.82-2.23-1.81-5.72-3.91-11.31-3.91-11.24,0-19.06,8.45-19.06,19.27,0,12.71,10.12,19.13,18.92,19.13,6.21,0,11.59-3.14,14.24-7.82.84-1.47,1.75-3.7,1.88-6.63h-13.82v-4.89Z"/>
    <path class="cls-2" d="M162.78,50.79c-.84,1.61-2.09,3.35-3.56,4.68-2.65,2.37-5.93,3.56-9.63,3.56-6.98,0-14.31-4.4-14.31-15.15,0-8.66,5.31-15.36,14.03-15.36,5.65,0,9.21,2.79,10.96,5.31,1.81,2.58,2.86,7.05,2.72,10.89h-22.55c.07,6,4.19,9.84,9.21,9.84,2.37,0,4.26-.7,5.93-2.09,1.33-1.12,2.37-2.58,3-3.98l4.19,2.3ZM157.82,40.53c-.84-4.54-4.26-7.54-8.52-7.54s-7.75,3.21-8.52,7.54h17.03Z"/>
    <path class="cls-2" d="M168.85,43.81c0-8.8,6.49-15.29,15.36-15.29s15.36,6.49,15.36,15.29-6.56,15.22-15.36,15.22-15.36-6.42-15.36-15.22ZM174.02,43.81c0,7.12,5.03,10.75,10.19,10.75s10.19-3.7,10.19-10.75-4.89-10.82-10.19-10.82-10.19,3.77-10.19,10.82Z"/>
    <path class="cls-2" d="M207.25,29.22h5.03v3.14c.49-.77,2.65-3.84,6.56-3.84,1.54,0,3.21.56,4.47,1.19l-2.37,4.54c-1.12-.77-2.16-.98-2.93-.98-2.03,0-3.28.84-4.05,1.81-.84,1.12-1.67,3.07-1.67,7.82v15.29h-5.03v-28.97Z"/>
    <path class="cls-2" d="M248.43,29.22h5.03v28.27c0,3.14,0,7.61-2.79,11.38-2.16,2.93-6.14,5.38-11.59,5.38-4.96,0-8.38-1.95-10.33-3.91-1.95-1.96-3.77-5.1-3.77-9.36h4.96c0,2.44.98,4.61,2.23,6,2.09,2.3,4.75,2.79,6.98,2.79,3.56,0,6-1.26,7.68-4.05,1.47-2.37,1.61-4.96,1.61-7.4v-4.19c-1.68,2.16-4.82,4.89-9.91,4.89-4.26,0-7.68-1.68-9.91-3.91-1.95-1.96-4.19-5.58-4.19-11.45s2.09-9.14,4.19-11.24c2.44-2.37,6-3.91,9.91-3.91,4.26,0,7.61,1.82,9.91,4.82v-4.12ZM232.52,35.71c-2.44,2.51-2.93,5.58-2.93,7.96,0,2.51.49,5.93,3.28,8.52,1.61,1.47,3.56,2.37,6.21,2.37s4.75-.84,6.35-2.44c1.96-1.88,3.28-4.96,3.28-8.38s-1.26-6.42-3.07-8.17c-1.61-1.61-3.98-2.58-6.56-2.58-3.07,0-5.17,1.33-6.56,2.72Z"/>
    <path class="cls-2" d="M288.64,50.79c-.84,1.61-2.09,3.35-3.56,4.68-2.65,2.37-5.93,3.56-9.63,3.56-6.98,0-14.31-4.4-14.31-15.15,0-8.66,5.31-15.36,14.03-15.36,5.65,0,9.21,2.79,10.96,5.31,1.81,2.58,2.86,7.05,2.72,10.89h-22.55c.07,6,4.19,9.84,9.21,9.84,2.37,0,4.26-.7,5.93-2.09,1.33-1.12,2.37-2.58,3-3.98l4.19,2.3ZM283.69,40.53c-.84-4.54-4.26-7.54-8.52-7.54s-7.75,3.21-8.52,7.54h17.03Z"/>
  </g>
</svg>