<?xml version="1.0" encoding="UTF-8"?>
<svg id="Layer_3" xmlns="http://www.w3.org/2000/svg" viewBox="0 0 210.53 210.53">
  <defs>
    <style>
      .cls-1 {
        fill: #f36f5b;
      }

      .cls-2 {
        fill: #3f4042;
      }
    </style>
  </defs>
  <circle class="cls-2" cx="105.27" cy="105.27" r="105.27"/>
  <path class="cls-1" d="M112.41,91.07v24.99h38.38c-2.46,10.71-8.26,18.3-14.06,22.76-8.26,6.25-19.41,8.93-29.23,8.93-15.84,0-26.33-6.25-33.03-12.72-6.25-6.02-14.73-17.85-14.73-37.71,0-16.74,6.47-31.02,14.95-39.27.66-.64,1.34-1.25,2.03-1.84l-19.75-19.75c-1.91,1.6-3.67,3.22-5.27,4.85-8.93,8.93-21.87,26.55-21.87,55.34,0,33.47,16.96,52.22,22.09,57.35,16.29,16.29,35.48,20.08,54,20.08s37.49-4.24,52.89-19.64c20.53-20.31,21.87-51.55,21.87-61.59v-1.79h-68.28Z"/>
</svg>