<?xml version="1.0" encoding="UTF-8"?>
<svg id="Layer_1" data-name="Layer 1" xmlns="http://www.w3.org/2000/svg" viewBox="0 0 222.39 319.73">
  <defs>
    <style>
      .cls-1 {
        fill: #efeded;
        stroke-width: 0px;
      }
    </style>
  </defs>
  <path class="cls-1" d="m53.2,319.73c-2.19-.51-4.4-.95-6.58-1.53-24.01-6.45-39.85-21.53-45.02-45.87-5.3-24.89,3.26-45.37,23.4-60.96.55-.43,1.1-.87,1.85-1.46C9.76,197.44.18,181.05.19,159.84c.01-21.1,9.47-37.45,26.64-49.96-1.42-1.13-2.79-2.14-4.08-3.24C3.48,90.22-4.13,69.49,2.17,44.96,8.43,20.57,25.06,6.1,49.62.86,52.84.17,56.23.06,59.54.05,93.99,0,128.43-.02,162.87.02c29.84.04,55.24,22.19,58.93,51.79,2.89,23.22-5.51,41.93-23.87,56.28-.49.38-1,.74-1.49,1.12-.16.13-.3.28-.65.63,17.09,12.51,26.61,29.09,26.6,50.54,0,14.5-5.08,27.16-14.25,38.33-18.19,22.16-57.69,30.92-86.8,6.11-.06,1.28-.15,2.37-.15,3.46,0,16.65.02,33.3-.01,49.95-.05,28.95-18.67,52.81-46.69,59.87-2.5.63-5.04,1.09-7.56,1.63h-13.74ZM101.2,19.71c-1.3,0-2.32,0-3.35,0-12.38,0-24.76-.02-37.15.02-2.29,0-4.6,0-6.85.37-20.1,3.22-36.04,21.27-33.84,44.48,1.83,19.37,19.68,35.34,40.22,35.38,12.59.03,25.18,0,37.77,0,1.01,0,2.02,0,3.2,0V19.71Zm20.17,80.25c11.04,0,21.85.06,32.65-.02,4.98-.04,10.02.1,14.93-.6,20.12-2.89,34.66-20.94,33.69-41.44-.97-20.5-17.08-37.17-37.49-37.97-14.13-.55-28.29-.16-42.44-.18-.39,0-.78.13-1.34.23v79.99Zm-20.15,19.82c-14.09,0-27.82-.08-41.54.02-21.95.15-39.29,17.32-39.81,39.28-.48,20.77,15.96,39.75,36.08,40.64,14.84.65,29.74.14,44.61.13.17,0,.35-.18.66-.35v-79.72Zm.07,100.11c-.89-.05-1.49-.12-2.09-.12-13.63,0-27.25-.04-40.88.05-2.37.02-4.78.36-7.09.91-20.47,4.8-33.05,22.65-31.15,44.1,1.66,18.7,18.59,34.16,38.49,35.13,21.7,1.06,41.52-15.75,42.58-36.97.71-14.21.13-28.48.13-43.09Zm60.72-100.11c-22.81-.01-40.76,17.53-40.81,39.86-.05,22.63,17.78,40.3,40.68,40.31,22.94,0,40.89-17.66,40.82-40.18-.07-22.47-17.89-39.98-40.69-39.99Z"/>
</svg>