<?xml version="1.0" encoding="UTF-8"?>
<svg id="Layer_1" data-name="Layer 1" xmlns="http://www.w3.org/2000/svg" viewBox="0 0 319.73 319.73">
  <defs>
    <style>
      .cls-1 {
        fill: #efeded;
        stroke-width: 0px;
      }
    </style>
  </defs>
  <g>
    <path class="cls-1" d="m0,319.11V0C106.37,0,212.74,0,319.11,0v319.11H0Zm18.83-18.91h281.35V18.85H18.83v281.35Z"/>
    <path class="cls-1" d="m0,319.11h319.11V0c.21.83.59,1.66.6,2.49.04,12.36.03,24.72.03,37.08v280.16c-105.64,0-211.28,0-316.93-.03-.94,0-1.87-.39-2.8-.6Z"/>
  </g>
  <g>
    <path class="cls-1" d="m271.84,223.85v-.12c-.09-2.27-.14-4.77-.14-7.88,0-18.23,0-36.45,0-54.67v-16.4c0-4.84,0-9.67,0-14.51-.01-14.29-.03-29.07.08-43.6.01-1.52-.15-3.44-1.5-4.75-1.34-1.3-3.21-1.41-4.7-1.36-6.56.23-12.25.23-17.42-.01-1.43-.07-3.5,0-4.95,1.42-1.44,1.4-1.6,3.42-1.57,5.21.13,7.32.1,14.78.08,21.99,0,2.84-.02,5.69-.02,8.53v1.9c-.34,0-.68,0-1.02-.01-2.11-.03-4.1-.06-6.1.05-26.8,1.5-46.44,15.96-53.88,39.67-5.03,16.03-4.67,32.28,1.08,48.3,6.19,17.27,18.59,27.93,36.85,31.68,4.77.98,9.58,1.47,14.46,1.47,10.26,0,20.81-2.18,31.92-6.58,6.54-2.59,7.11-3.46,6.84-10.33Zm-30.17-53.16c0,2.16.01,4.33.01,6.5h-.11v10.53c-.01,7.94-.02,16.15.04,24.23,0,.77-.1.99-.09.99h0s-.18.13-.74.25c-14.39,2.94-26.05-3-30.43-15.51-4.27-12.2-4.21-24.14.18-35.51,4.15-10.75,13.57-17.23,24.38-17.23,1.75,0,3.54.17,5.34.52,1.53.3,1.53.35,1.5,1.65-.12,7.87-.1,15.86-.08,23.59Z"/>
    <path class="cls-1" d="m167.36,229.79l-7.89-15.12c-9.38-17.99-19.08-36.6-28.75-54.85-.95-1.8-.94-2.7.07-4.62,9.98-19.04,19.99-38.45,29.67-57.23l4.67-9.07c.52-1.01.88-2.01,1.25-3.07.17-.47.35-.98.56-1.53l1.99-5.19h-5.56c-2.25,0-4.44.02-6.59.03-5.02.04-9.77.08-14.48-.11-4.9-.2-8.13,1.82-10.16,6.34-5.81,12.92-11.85,26.01-17.69,38.67-1.38,3-2.77,5.99-4.15,8.99l-2.96-6.33c-6.52-13.98-13.27-28.44-19.97-42.64-.23-.5-2.39-4.84-6.11-4.94-6.58-.17-13.13-.15-20.07-.14-2.08,0-4.2,0-6.36,0h-5.94l2.46,5.4c.27.6.5,1.11.7,1.55.39.88.69,1.55,1.02,2.21l6.6,13.16c9.34,18.62,18.99,37.87,28.56,56.77.77,1.52.69,1.98.08,3.14-10.36,19.47-20.77,39.33-30.84,58.53l-5.34,10.17c-.49.94-.89,1.89-1.31,2.9-.2.48-.42,1.01-.67,1.58l-2.32,5.34h5.83c2.38,0,4.7,0,6.98-.02,5.59-.02,10.87-.05,16.16.08.11,0,.21,0,.32,0,4.17,0,7.06-1.87,8.84-5.71,6.25-13.51,12.68-27.22,18.9-40.47l3.79-8.07,4.54,9.38c6.18,12.77,12.58,25.98,18.79,39,1.94,4.06,5.04,5.98,9.45,5.86,4.58-.12,9.27-.1,13.81-.07,2.01,0,4.03.02,6.04.02,2.61,0,5.56,0,7.1-2.55,1.54-2.54.12-5.24-1.01-7.42Z"/>
  </g>
</svg>