<?xml version="1.0" encoding="UTF-8"?>
<svg id="Layer_1" data-name="Layer 1" xmlns="http://www.w3.org/2000/svg" viewBox="0 0 319.73 319.73">
  <defs>
    <style>
      .cls-1 {
        fill: #efeded;
        stroke-width: 0px;
      }
    </style>
  </defs>
  <g>
    <path class="cls-1" d="m319.73.62v319.11H.62V.62h319.11ZM19.53,19.45v281.35h281.35V19.45H19.53Z"/>
    <path class="cls-1" d="m319.73.62c-106.23,0-212.45,0-319.11,0,0,106.51,0,212.81,0,319.11-.21-.73-.59-1.45-.6-2.18-.04-12.25-.03-24.5-.03-36.75V0h4.83C108.86,0,212.9,0,316.93.03c.93,0,1.87.39,2.8.6Z"/>
  </g>
  <g>
    <path class="cls-1" d="m175.68,230.62c-2.68,0-5.06,0-7.45,0-9.01,0-18.02-.05-27.02.04-1.88.02-2.72-.54-3.28-2.42-2.41-8.09-5.02-16.13-7.59-24.28h-47.29c-2.53,8.12-5.06,16.17-7.51,24.25-.47,1.56-1.01,2.48-2.94,2.46-11-.1-22-.05-32.99-.06-.4,0-.8-.12-1.58-.24.36-1.18.62-2.25,1-3.28,16.74-45.69,33.51-91.36,50.21-137.07.8-2.19,1.82-3.01,4.24-2.96,9,.17,18.01.11,27.02.03,1.72-.02,2.58.47,3.19,2.15,17.21,46.74,34.48,93.47,51.74,140.2.07.19.08.4.24,1.19Zm-53.76-53.82c-5.04-16.2-10.01-32.14-14.97-48.08-.23.02-.47.05-.7.07-4.92,15.95-9.83,31.89-14.8,48.01h30.47Z"/>
    <path class="cls-1" d="m281.7,187.96h-66.41c1.94,8.63,6.16,15.15,14.45,17.51,12.68,3.61,23.98.77,33.42-9.42,5.01,5.9,9.98,11.77,15.35,18.1-2.87,2.69-5.44,5.61-8.48,7.88-19.82,14.77-51.44,14.07-70.59-1.5-10.62-8.63-16.44-19.98-17.67-33.46-1.08-11.83-.56-23.62,3.98-34.88,7.61-18.86,22.06-28.25,41.89-29.89,7.42-.61,14.86-.19,22.02,2.21,17.84,5.96,27.36,19.01,30.26,36.95,1.38,8.5,1.21,17.24,1.78,26.5Zm-33.36-21.21c1.18-11.13-4.23-18.14-13.71-18.92-10.03-.82-17.83,4.82-19.03,18.92h32.74Z"/>
  </g>
</svg>