<?xml version="1.0" encoding="UTF-8"?>
<svg id="Layer_1" data-name="Layer 1" xmlns="http://www.w3.org/2000/svg" viewBox="0 0 377.51 377.57">
  <defs>
    <style>
      .cls-1 {
        fill: #efeded;
        stroke-width: 0px;
      }
    </style>
  </defs>
  <path class="cls-1" d="m188.45,377.43c-60.71,0-121.42-.08-182.13.14C.95,377.59,0,376.07,0,371.06.14,249.43.14,127.81,0,6.18,0,1.38,1.03,0,6.04,0,127.85.15,249.67.15,371.48,0c5.03,0,6.03,1.41,6.02,6.2-.14,121.63-.14,243.25,0,364.88,0,5.04-.99,6.52-6.34,6.5-60.91-.22-121.81-.14-182.72-.14Zm102.78-29.32c2.6.39,7.48-.57,12.29-1.35,14.12-2.31,26.81-7.66,35.59-19.58,17.21-23.36,9.93-56.55-15.76-73.02-10.1-6.47-21.21-10.86-32.12-15.66-5.37-2.36-10.85-4.6-15.3-8.55-4.96-4.41-6.88-9.96-4.99-16.46,1.83-6.29,6.21-9.73,12.65-10.7,10.14-1.52,18.24,1.8,23.68,10.51,2.1,3.36,3.62,4.08,7.05,1.65,6.06-4.3,12.36-8.31,18.79-12.02,3.9-2.25,4.47-4.11,1.79-7.98-13.75-19.89-33.11-25.74-56.01-22.95-21.79,2.66-37.48,15.39-41.97,33.8-5.46,22.37,1.97,42.04,20.71,55.01,5.5,3.81,11.4,6.81,17.47,9.58,9.06,4.14,18.5,7.49,27.12,12.58,7.84,4.63,11.56,11.17,10.15,18.26-1.61,8.1-7.3,12.12-14.88,14.01-16.28,4.07-30.85-1.62-41.28-16.61-2.2-3.17-3.61-3.49-6.78-1.46-6.59,4.21-13.34,8.25-20.31,11.78-4.21,2.13-4.03,4.06-1.77,7.57,14.43,22.47,35.98,30.83,63.88,31.62Zm-85.84-107.86s.05,0,.08,0c0-20.42-.17-40.83.13-61.24.07-4.82-1.46-5.84-5.9-5.66-8.43.34-16.88.3-25.31,0-3.79-.13-4.54,1.19-4.49,4.68.19,14.33.08,28.66.08,42.99-.01,25.52.07,51.04-.09,76.56-.08,12.59-6.67,18.67-19.12,18.52-9.99-.12-15.64-6.3-19.95-14.16-1.84-3.35-3.32-3.86-6.6-1.66-6.33,4.24-12.8,8.36-19.56,11.83-5.12,2.63-4.69,5.02-2.05,9.38,14.36,23.71,41.34,30.44,66.33,24.48,23.41-5.58,36.05-22.15,36.41-46.24.29-19.82.06-39.65.06-59.48Z"/>
</svg>