<?xml version="1.0" encoding="UTF-8"?>
<svg id="Layer_1" data-name="Layer 1" xmlns="http://www.w3.org/2000/svg" viewBox="0 0 319.73 319.73">
  <defs>
    <style>
      .cls-1 {
        fill: #efeded;
        stroke-width: 0px;
      }
    </style>
  </defs>
  <path class="cls-1" d="m0,319.11V0C106.37,0,212.74,0,319.11,0v319.11H0Zm19.99-20.07h279.08V20.12H19.99v278.92Z"/>
  <path class="cls-1" d="m0,319.11h319.11V0c.21.83.59,1.66.6,2.49.04,12.36.03,24.72.03,37.08v280.16c-105.64,0-211.28,0-316.93-.03-.94,0-1.87-.39-2.8-.6Z"/>
  <path class="cls-1" d="m206.32,138.15v-59.98h34.87v160.27h-29.98c-.51-5.04-1.04-10.23-1.56-15.42-.26-.15-.51-.31-.77-.46-.21.45-.37.93-.62,1.34-12.06,19.59-42.22,23.11-61,7.82-11.4-9.29-17.13-21.71-19.21-35.89-2.04-13.88-.8-27.48,4.69-40.59,10.09-24.09,37.13-36.05,61-26.84,4.84,1.87,8.93,4.78,12.59,9.75Zm.3,46.04c-.27-5.7-.21-9.97-.72-14.18-1.1-9.06-7.81-16.28-16.22-17.86-9.02-1.7-18.06,2.32-22.43,10.44-6.65,12.38-6.93,25.28-1.48,38.04,4.16,9.74,12.04,13.41,21.04,12.97,9.59-.47,16.48-6.56,18.58-16.34,1.01-4.71.94-9.65,1.24-13.08Z"/>
  <path class="cls-1" d="m111.85,238.58h-34.34V86.22h34.34v152.37Z"/>
</svg>