<?xml version="1.0" encoding="UTF-8"?>
<svg id="Layer_1" data-name="Layer 1" xmlns="http://www.w3.org/2000/svg" viewBox="0 0 357.12 408.71">
  <defs>
    <style>
      .cls-1 {
        fill: #efeded;
        stroke-width: 0px;
      }
    </style>
  </defs>
  <path class="cls-1" d="m180.06,408.71h-3.19c-1.22-1.18-2.89-1.22-4.39-1.64-45.28-12.69-90.56-25.41-135.89-37.93-3.51-.97-4.62-2.56-4.86-5.9-.8-11.14-1.8-22.26-2.79-33.39-2.53-28.47-5.12-56.94-7.64-85.41-2.26-25.56-4.45-51.13-6.71-76.68-2.53-28.6-5.14-57.2-7.67-85.81C4.67,56.53,2.49,31.09.22,5.67-.28.04-.39.04,5.07.04c115.59,0,231.18,0,346.77,0,.93,0,1.87.09,2.79-.01,2.26-.24,2.63.87,2.45,2.85-2.21,24.36-4.37,48.73-6.54,73.1-2.29,25.69-4.59,51.38-6.87,77.07-2.24,25.29-4.45,50.59-6.69,75.89-2.29,25.82-4.6,51.64-6.89,77.47-1.69,19.07-3.42,38.14-4.99,57.22-.27,3.26-1.52,4.63-4.76,5.52-37.91,10.44-75.78,21.02-113.63,31.7-8.91,2.51-18.01,4.43-26.65,7.86Zm-1.42-333.53c-35.91,0-71.82,0-107.73,0-1.06,0-2.13.06-3.19,0-1.98-.13-2.48.79-2.35,2.66.85,11.67,1.75,23.34,2.35,35.02.2,3.98,1.5,5.22,5.65,5.19,51.73-.34,103.47-.47,155.2-.65,3.86-.01,7.72.06,11.57-.04,2.01-.05,2.78.45,2.6,2.71-1.06,13.25-2.03,26.51-2.87,39.78-.17,2.6-1.18,3.39-3.67,3.38-5.32-.03-10.64.22-15.95.28-47.74.57-95.48,1.16-143.22,1.61-3.39.03-4.35.96-3.96,4.27,1.38,11.75,2.66,23.51,3.74,35.28.26,2.85,1.38,3.39,3.97,3.38,49.74-.21,99.48-.34,149.22-.48,1.06,0,2.13.07,3.19-.01,1.95-.15,2.46.58,2.24,2.56-2.12,18.89-4.15,37.78-6.15,56.68-.25,2.41-1.17,3.64-3.68,4.3-14.91,3.88-29.77,7.96-44.63,11.99-1.86.51-3.63.41-5.48-.09-14.61-3.98-29.22-7.96-43.87-11.78-2.58-.67-3.7-1.8-3.91-4.51-.79-10.2-1.89-20.38-2.64-30.59-.2-2.72-1.05-3.66-3.8-3.64-12.9.11-25.8.1-38.7,0-2.47-.02-3.29.8-3.02,3.25.61,5.55,1.06,11.11,1.56,16.67,1.48,16.42,2.97,32.83,4.39,49.25.21,2.41,1.01,3.63,3.57,4.33,28.96,7.9,57.88,15.95,86.79,24,1.74.48,3.32.49,5.06,0,28.92-8.05,57.84-16.08,86.8-23.98,2.46-.67,3.53-1.65,3.69-4.21.35-5.7.95-11.39,1.46-17.08,3.09-34.02,6.22-68.04,9.26-102.06,3.06-34.29,5.94-68.6,9.18-102.87.41-4.32-.9-4.7-4.53-4.69-36.04.11-72.08.07-108.12.07Z"/>
</svg>