<?xml version="1.0" encoding="UTF-8"?>
<svg id="Layer_1" data-name="Layer 1" xmlns="http://www.w3.org/2000/svg" viewBox="0 0 319.73 319.73">
  <defs>
    <style>
      .cls-1 {
        fill: #efeded;
        stroke-width: 0px;
      }
    </style>
  </defs>
  <path class="cls-1" d="m.62,0h319.11v319.11H.62V0Zm19.98,299.04h279.09V20.12H20.6v278.93Z"/>
  <path class="cls-1" d="m.62,0v319.11h319.11c-.83.21-1.66.59-2.49.6-12.36.04-24.72.03-37.08.03H0C0,214.09,0,108.45.03,2.8c0-.94.39-1.87.6-2.8Z"/>
  <path class="cls-1" d="m168.32,241.02c-2.48-8.23-4.99-16.53-7.5-24.84-1.28-4.26-2.6-8.52-3.8-12.81-.46-1.63-1.19-2.29-3.01-2.28-13.4.09-26.8.09-40.2,0-1.99-.01-2.6.8-3.09,2.58-3.17,11.59-6.46,23.14-9.72,34.7-.25.89-.53,1.77-.8,2.66h-36.75c2.86-9.42,5.65-18.62,8.46-27.81,12.82-41.88,25.67-83.76,38.41-125.67.76-2.49,1.77-3.39,4.46-3.36,13.4.15,26.8.11,40.2.02,2.05-.01,3.13.45,3.79,2.57,15.66,50.76,31.39,101.5,47.1,152.25.18.58.27,1.18.46,1.97h-38.01Zm-17.3-66.78c-5.9-21.12-11.72-41.97-17.54-62.83-.19.02-.38.05-.57.07-5.43,20.89-10.86,41.77-16.31,62.76h34.42Z"/>
  <path class="cls-1" d="m255.61,241.05h-35.39v-3.47c0-35.5.04-71-.07-106.49,0-3.02.83-3.84,3.81-3.78,9.44.19,18.89.07,28.33.07,1.02,0,2.04,0,3.31,0v113.68Z"/>
  <path class="cls-1" d="m237.87,113.45c-10.81,0-18.42-7.26-18.44-17.58-.02-10.74,7.52-17.96,18.73-17.94,11.03.02,18.75,7.49,18.7,18.09-.05,10.21-7.93,17.44-18.99,17.43Z"/>
</svg>