<?xml version="1.0" encoding="UTF-8"?>
<svg id="Layer_1" data-name="Layer 1" xmlns="http://www.w3.org/2000/svg" viewBox="0 0 319.73 319.73">
  <defs>
    <style>
      .cls-1 {
        fill: #efeded;
        stroke-width: 0px;
      }
    </style>
  </defs>
  <path class="cls-1" d="m0,319.11V0C106.37,0,212.74,0,319.11,0v319.11H0Zm19.98-20.06h279.1V20.12H19.98v278.93Z"/>
  <path class="cls-1" d="m0,319.11h319.11V0c.21.83.59,1.66.6,2.49.04,12.36.03,24.72.03,37.08v280.16c-105.64,0-211.28,0-316.93-.03-.94,0-1.87-.39-2.8-.6Z"/>
  <path class="cls-1" d="m57.59,80.98c7.34-.78,14.62-2.03,21.93-2.24,13.68-.38,27.4-.69,41.06-.03,12.79.62,25,4.07,35.13,12.55,10.82,9.07,15.98,20.91,16.34,34.92.38,14.79-3.31,28.22-14.11,38.88-9.02,8.9-20.32,13.41-32.6,15.6-9.64,1.72-19.36,2.37-29.14,1.34-.8-.08-1.62-.01-2.77-.01v56.64h-35.83V80.98Zm36.11,25.57v47.49c6.39,0,12.55.54,18.57-.11,12.55-1.37,22.82-8.91,23.95-23.36.77-9.9-4.15-19.05-13.32-22.67-9.55-3.78-19.32-2.93-29.2-1.34Z"/>
  <path class="cls-1" d="m256.72,126.97c-2.15,8.35-4.24,16.44-6.26,24.3-5.75-1.76-11.18-3.9-16.81-4.99-4.38-.85-9.02-.43-13.54-.46-.99,0-2.04.39-2.97.82-3,1.37-5.07,3.46-5.46,6.97-.39,3.54,1,6.34,4,7.78,6.24,2.99,12.66,5.61,19.05,8.27,7.54,3.14,14.8,6.81,19.89,13.4,12.74,16.47,7.94,40.15-10.1,50.57-9.31,5.38-19.53,7.29-30.13,7.54-12.13.28-23.99-1.28-35.38-5.65-1.71-.66-3.34-1.53-5.14-2.36,2.16-8.66,4.25-17.08,6.25-25.09,7.11,2.28,14,4.76,21.03,6.68,5.95,1.62,12.11,1.85,18.17.3,3.89-1,6.73-3.19,7.27-7.52.53-4.23-1.21-7.48-4.9-9.21-5.52-2.59-11.23-4.76-16.89-7.04-7.97-3.22-15.29-7.4-21.05-13.95-10.48-11.94-8.36-30.53,1.11-41.46,7.51-8.67,17.31-13.13,28.36-14.72,14.1-2.03,27.91-.46,41.21,4.85.67.27,1.31.58,2.29,1.02Z"/>
</svg>