<?xml version="1.0" encoding="UTF-8"?>
<svg id="Layer_1" data-name="Layer 1" xmlns="http://www.w3.org/2000/svg" viewBox="0 0 329.83 377.57">
  <defs>
    <style>
      .cls-1 {
        fill: #efeded;
        stroke-width: 0px;
      }
    </style>
  </defs>
  <path class="cls-1" d="m166.39,377.57h-2.95c-.19-.15-.36-.38-.57-.44-21.88-6.9-43.77-13.76-65.64-20.67-20.83-6.57-41.62-13.26-62.48-19.72-6.4-1.98-10.04-5.84-10.41-12.61-.14-2.58-.29-5.15-.5-7.73-1.64-20.94-3.29-41.89-4.93-62.83-1.32-16.9-2.62-33.81-3.95-50.71-1.61-20.45-3.26-40.9-4.85-61.36-1.59-20.33-3.11-40.67-4.7-61C3.63,57.84,1.77,35.19.04,12.53-.47,5.85,4.2.65,10.9.07c1.22-.11,2.46-.06,3.69-.06,100.22,0,200.44,0,300.66,0,1.23,0,2.47-.05,3.69.06,6.7.58,11.32,5.78,10.87,12.46-.63,9.32-1.38,18.62-2.12,27.93-1.87,23.64-3.8,47.27-5.65,70.91-1.84,23.52-3.57,47.04-5.41,70.56-1.85,23.64-3.8,47.27-5.65,70.91-1.84,23.52-3.67,47.03-5.35,70.56-.51,7.19-3.98,11.33-10.88,13.47-25.78,7.99-51.49,16.22-77.22,24.39-17.05,5.41-34.09,10.88-51.13,16.32Zm-95.35-162.99c0,1.46-.07,2.55.01,3.63,1.51,20.09,3.08,40.17,4.52,60.27.17,2.42,1.57,2.95,3.44,3.54,27.72,8.76,55.43,17.59,83.17,26.28,1.72.54,3.91.51,5.64-.04,27.63-8.66,55.2-17.49,82.83-26.13,2.75-.86,3.51-2.22,3.69-4.93.92-13.97,2.03-27.93,3.13-41.89,1.85-23.51,3.76-47.02,5.62-70.53.28-3.49.44-6.99.68-10.84h-5.18c-47.46,0-94.92-.04-142.38.08-3.24,0-4.18-.98-4.38-4.08-.38-5.88-1.21-11.72-1.84-17.58-.79-7.39-1.57-14.77-2.38-22.47h4.77c49.8,0,99.59,0,149.39,0,.98,0,1.97-.08,2.95.01,2.08.19,2.73-.77,2.88-2.77.87-11.88,1.86-23.76,2.78-35.64.06-.79-.14-1.6-.22-2.37H59.5c-.04.85-.12,1.34-.09,1.82,1.51,19.47,3.03,38.95,4.56,58.42,1.62,20.57,3.36,41.14,4.79,61.72.24,3.44,1.04,4.53,4.63,4.52,46.72-.12,93.44-.08,140.16-.08h4.51c-1.27,16.92-2.44,33.21-3.81,49.48-.08.97-1.6,2.32-2.69,2.63-14.29,4.01-28.62,7.9-42.97,11.69-1.56.41-3.43.4-5-.01-14.35-3.78-28.66-7.75-43.02-11.51-2.25-.59-2.9-1.54-2.87-3.76.11-7.99.04-15.98.04-23.97,0-1.78,0-3.57,0-5.47h-46.73Z"/>
</svg>